<svg xmlns="http://www.w3.org/2000/svg" viewBox="0 0 64 64" role="img" aria-label="Chladni — sand gathered on the diagonal nodal lines of a struck plate">
  <!-- CHLADNI — the (1,1) figure: sand on the two diagonal nodal lines. Redesigns replace this. -->
  <rect width="64" height="64" rx="14" fill="#0e100f"/>
  <g fill="#eae3d1">
    <circle cx="12" cy="12" r="2.1"/><circle cx="17" cy="17" r="1.7"/>
    <circle cx="22" cy="22" r="2.2"/><circle cx="27" cy="27" r="1.8"/>
    <circle cx="37" cy="37" r="1.8"/><circle cx="42" cy="42" r="2.2"/>
    <circle cx="47" cy="47" r="1.7"/><circle cx="52" cy="52" r="2.1"/>
    <circle cx="52" cy="12" r="2.1"/><circle cx="47" cy="17" r="1.7"/>
    <circle cx="42" cy="22" r="2.2"/><circle cx="37" cy="27" r="1.8"/>
    <circle cx="27" cy="37" r="1.8"/><circle cx="22" cy="42" r="2.2"/>
    <circle cx="17" cy="47" r="1.7"/><circle cx="12" cy="52" r="2.1"/>
    <circle cx="14.5" cy="14.8" r="1.1"/><circle cx="24.6" cy="24.2" r="1.1"/>
    <circle cx="39.4" cy="39.8" r="1.1"/><circle cx="49.5" cy="49.2" r="1.1"/>
    <circle cx="49.5" cy="14.8" r="1.1"/><circle cx="39.4" cy="24.2" r="1.1"/>
    <circle cx="24.6" cy="39.8" r="1.1"/><circle cx="14.5" cy="49.2" r="1.1"/>
  </g>
  <circle cx="32" cy="32" r="3.4" fill="#9d7dff"/>
</svg>
